<svg width="17" height="14" viewBox="0 0 17 14" fill="none" xmlns="http://www.w3.org/2000/svg">
<path d="M8.5 10.5C10.078 10.5 11.3571 9.19417 11.3571 7.58334C11.3571 5.97251 10.078 4.66667 8.5 4.66667C6.92204 4.66667 5.64286 5.97251 5.64286 7.58334C5.64286 9.19417 6.92204 10.5 8.5 10.5Z" fill="white"/>
<path d="M14.7857 2.33334H13.2063C13.1001 2.33369 12.996 2.30365 12.9057 2.24663C12.8154 2.18961 12.7425 2.1079 12.6954 2.01076L12.184 0.967177C12.0425 0.675827 11.8239 0.430782 11.5529 0.259834C11.2819 0.088886 10.9694 -0.00112474 10.6509 1.06092e-05H6.34914C6.03059 -0.00112474 5.7181 0.088886 5.44712 0.259834C5.17613 0.430782 4.95749 0.675827 4.816 0.967177L4.30171 2.01076C4.25482 2.10745 4.18243 2.18887 4.09269 2.24586C4.00295 2.30285 3.89941 2.33314 3.79371 2.33334H2.21429C1.75963 2.33334 1.32359 2.51772 1.0021 2.8459C0.680612 3.17409 0.5 3.61921 0.5 4.08334V12.25C0.5 12.7141 0.680612 13.1592 1.0021 13.4874C1.32359 13.8156 1.75963 14 2.21429 14H14.7857C15.2404 14 15.6764 13.8156 15.9979 13.4874C16.3194 13.1592 16.5 12.7141 16.5 12.25V4.08334C16.5 3.61921 16.3194 3.17409 15.9979 2.8459C15.6764 2.51772 15.2404 2.33334 14.7857 2.33334ZM8.5 11.6667C7.70888 11.6667 6.93552 11.4272 6.27772 10.9785C5.61992 10.5298 5.10723 9.89209 4.80448 9.14596C4.50173 8.39983 4.42252 7.57881 4.57686 6.78672C4.7312 5.99463 5.11216 5.26705 5.67157 4.69599C6.23098 4.12492 6.94372 3.73602 7.71964 3.57847C8.49556 3.42091 9.29983 3.50178 10.0307 3.81083C10.7616 4.11989 11.3864 4.64326 11.8259 5.31476C12.2654 5.98626 12.5 6.77573 12.5 7.58334C12.4988 8.66593 12.077 9.70382 11.3271 10.4693C10.5772 11.2348 9.5605 11.6654 8.5 11.6667ZM14.2143 5.25001C14.1013 5.25001 13.9908 5.21579 13.8968 5.1517C13.8028 5.0876 13.7296 4.9965 13.6864 4.88991C13.6431 4.78332 13.6318 4.66603 13.6538 4.55287C13.6759 4.43972 13.7303 4.33578 13.8102 4.2542C13.8901 4.17261 13.992 4.11706 14.1028 4.09455C14.2137 4.07204 14.3285 4.08359 14.433 4.12774C14.5374 4.1719 14.6266 4.24666 14.6894 4.34259C14.7522 4.43852 14.7857 4.5513 14.7857 4.66667C14.7857 4.82138 14.7255 4.96976 14.6183 5.07915C14.5112 5.18855 14.3658 5.25001 14.2143 5.25001Z" fill="white"/>
</svg>
