<svg width="49" height="40" viewBox="0 0 49 40" fill="none" xmlns="http://www.w3.org/2000/svg">
<path d="M9.67501 9.65473V2.73957C9.67501 2.15388 9.19429 1.67908 8.60131 1.67908H5.02364C4.43067 1.67908 3.94995 2.15388 3.94995 2.73957V9.65473" fill="#E5E9EA"/>
<path d="M6.54992 9.65473V1.67908H5.02364C4.43067 1.67908 3.94995 2.15388 3.94995 2.73957V9.65473" fill="#D1D1D1"/>
<path d="M49 10.915V36.7879C49 38.5618 47.544 39.9999 45.748 39.9999H3.25199C1.45603 39.9999 0 38.5618 0 36.7879V10.915C0 9.14116 1.45603 7.70304 3.25199 7.70304H9.68229C11.0673 7.70304 12.3013 6.8368 12.7553 5.54396L13.9423 2.16011C14.3963 0.867184 15.6293 0 17.0153 0H35.985C37.3701 0 38.603 0.867184 39.057 2.16011L40.245 5.54396C40.699 6.83689 41.9319 7.70304 43.317 7.70304H45.7479C47.544 7.70304 49 9.14116 49 10.915Z" fill="#FCB65F"/>
<path d="M5.802 39.9999H3.25199C1.45603 39.9999 0 38.5618 0 36.7879V10.915C0 9.14112 1.45603 7.703 3.25199 7.703H5.59997V7.70896C3.89799 7.81265 2.55001 9.20833 2.55001 10.915V36.7879C2.55001 38.5618 4.00604 39.9999 5.802 39.9999Z" fill="#E29A4B"/>
<path d="M19.5651 0C18.1792 0 16.9461 0.867184 16.4921 2.16011L15.3051 5.54396C14.8511 6.83689 13.6171 7.70304 12.2321 7.70304H10.05V7.68233C11.282 7.54404 12.342 6.72129 12.755 5.54396L13.942 2.16011C14.396 0.867184 15.629 0 17.015 0C17.0152 0 19.5651 0 19.5651 0Z" fill="#E29A4B"/>
<path d="M49 16.4443V36.788C49 38.5619 47.544 40 45.748 40H3.25199C1.45603 40 0 38.5619 0 36.788V16.4443H49Z" fill="#53BCE9"/>
<path d="M5.802 39.9999H3.25199C1.45603 39.9999 0 38.5618 0 36.7879V16.4443H2.55001V36.788C2.55001 38.5619 4.00604 39.9999 5.802 39.9999Z" fill="#36A6CE"/>
<path d="M24.4999 36.9874C31.9828 36.9874 38.0489 30.996 38.0489 23.6051C38.0489 16.2142 31.9828 10.2227 24.4999 10.2227C17.017 10.2227 10.9509 16.2142 10.9509 23.6051C10.9509 30.996 17.017 36.9874 24.4999 36.9874Z" fill="#E5E9EA"/>
<path d="M34.0801 23.6051C34.0801 26.3914 32.8611 28.8962 30.9201 30.6287C29.2212 32.1448 26.9711 33.0682 24.5001 33.0682C22.0301 33.0682 19.7791 32.1447 18.0802 30.6286C16.1392 28.8971 14.9192 26.3913 14.9192 23.605C14.9192 20.8186 16.1392 18.3128 18.0802 16.5824C19.7792 15.0653 22.0301 14.1428 24.5001 14.1428C26.9711 14.1428 29.2212 15.0663 30.9201 16.5824C32.8611 18.314 34.0801 20.8187 34.0801 23.6051Z" fill="#566368"/>
<path d="M31.2738 16.9141C33.2685 18.8843 34.1998 21.5068 34.0675 24.0875C31.4547 24.218 28.7996 23.2983 26.8048 21.3281C24.8101 19.3579 23.8788 16.7353 24.0117 14.1554C26.6237 14.0241 29.279 14.944 31.2738 16.9141Z" fill="#6F7B7F"/>
<path d="M22.1948 25.8818C24.1895 27.852 25.1208 30.4745 24.9886 33.0552C22.3764 33.1865 19.7198 32.2667 17.7252 30.2964C15.7304 28.3262 14.7991 25.7023 14.9327 23.123C17.5449 22.9916 20.2 23.9115 22.1948 25.8818Z" fill="#6F7B7F"/>
<path d="M24.4998 33.8085C18.8037 33.8085 14.1694 29.2313 14.1694 23.6051C14.1694 17.979 18.8037 13.4018 24.4998 13.4018C30.196 13.4018 34.8302 17.9789 34.8302 23.6051C34.8302 29.2313 30.196 33.8085 24.4998 33.8085ZM24.4998 14.8833C19.6307 14.8833 15.6694 18.7959 15.6694 23.6051C15.6694 28.4144 19.6307 32.327 24.4998 32.327C29.3689 32.327 33.3303 28.4144 33.3303 23.6051C33.3303 18.7959 29.3689 14.8833 24.4998 14.8833Z" fill="#435054"/>
<path d="M24.4996 19.8066C22.379 19.8066 20.6538 21.5107 20.6538 23.6053C20.6538 25.6999 22.379 27.4038 24.4996 27.4038C26.6202 27.4038 28.3455 25.6998 28.3455 23.6053C28.3455 21.5108 26.6202 19.8066 24.4996 19.8066Z" fill="#435054"/>
<path d="M29.3671 6.96273H35.2608C36.0356 6.96273 36.6638 6.34235 36.6638 5.57697V4.05208C36.6638 3.28679 36.0357 2.66632 35.2608 2.66632H29.3671C28.5923 2.66632 27.9641 3.2867 27.9641 4.05208V5.57697C27.9641 6.34226 28.5923 6.96273 29.3671 6.96273Z" fill="#E5E9EA"/>
<path d="M35.2608 7.70342H29.3671C28.1799 7.70342 27.2141 6.74946 27.2141 5.57686V4.05215C27.2141 2.87956 28.1799 1.9256 29.3671 1.9256H35.2608C36.448 1.9256 37.4139 2.87956 37.4139 4.05215V5.57696C37.4138 6.74955 36.4479 7.70342 35.2608 7.70342ZM29.3671 3.40711C29.007 3.40711 28.7142 3.69645 28.7142 4.05206V5.57686C28.7142 5.93256 29.007 6.22181 29.3671 6.22181H35.2608C35.621 6.22181 35.9138 5.93247 35.9138 5.57686V4.05215C35.9138 3.69645 35.6209 3.4072 35.2608 3.4072L29.3671 3.40711Z" fill="#E29A4B"/>
<path d="M9.31506 37.2581C10.8129 37.2581 12.0271 36.0588 12.0271 34.5794C12.0271 33.1 10.8129 31.9007 9.31506 31.9007C7.81725 31.9007 6.60303 33.1 6.60303 34.5794C6.60303 36.0588 7.81725 37.2581 9.31506 37.2581Z" fill="#566368"/>
</svg>
