<svg width="20" height="20" viewBox="0 0 20 20" fill="none" xmlns="http://www.w3.org/2000/svg">
<circle cx="10" cy="10" r="10" fill="#B32223"/>
<path d="M13.776 12.6962C14.076 12.9961 14.076 13.4761 13.776 13.776C13.628 13.924 13.4321 14 13.2361 14C13.0401 14 12.8441 13.924 12.6962 13.776L10.0005 11.0804L7.30484 13.776C7.15286 13.924 6.96088 14 6.7649 14C6.56893 14 6.37295 13.924 6.22497 13.776C5.92501 13.4761 5.92501 12.9961 6.22497 12.6962L8.92063 10.0005L6.22497 7.30484C5.92501 7.00487 5.92501 6.52493 6.22497 6.22497C6.52093 5.92501 7.00487 5.92501 7.30484 6.22497L10.0005 8.92063L12.6962 6.22497C12.9961 5.92501 13.4761 5.92501 13.776 6.22497C14.076 6.52093 14.076 7.00487 13.776 7.30484L11.0804 10.0005L13.776 12.6962Z" fill="white"/>
</svg>
