<svg width="27" height="24" viewBox="0 0 27 24" fill="none" xmlns="http://www.w3.org/2000/svg">
<path d="M0.78983 19.1999H21.4624C21.6478 19.1999 21.827 19.1343 21.9691 19.0147C22.1676 18.8465 26.697 14.906 26.9732 6.3999H4.77129C4.49617 14.1212 0.324856 17.7504 0.281507 17.7866C0.0273722 18.0038 -0.0661288 18.3585 0.0482029 18.6741C0.161744 18.9889 0.457646 19.1999 0.78983 19.1999Z" fill="#507623"/>
<path d="M26.2087 1.6H22.2535V0.799998C22.2535 0.351999 21.9054 0 21.4624 0C21.0195 0 20.6714 0.351999 20.6714 0.799998V1.6H16.6635V0.799998C16.6635 0.351999 16.3154 0 15.8724 0C15.4294 0 15.0814 0.351999 15.0814 0.799998V1.6H11.1262V0.799998C11.1262 0.351999 10.7781 0 10.3351 0C9.89215 0 9.54409 0.351999 9.54409 0.799998V1.6H5.58889C5.14591 1.6 4.79785 1.952 4.79785 2.39999V4.79999H26.9997V2.39999C26.9997 1.952 26.6517 1.6 26.2087 1.6Z" fill="#507623"/>
<path d="M22.985 20.2413C22.5555 20.603 22.0163 20.8 21.4624 20.8H4.79785V23.1999C4.79785 23.6421 5.15166 23.9999 5.58889 23.9999H26.2087C26.6459 23.9999 26.9997 23.6421 26.9997 23.1999V14.2322C25.4746 18.0162 23.3464 19.9355 22.985 20.2413Z" fill="#6C6C6C"/>
</svg>
