<svg width="6" height="10" viewBox="0 0 6 10" fill="none" xmlns="http://www.w3.org/2000/svg">
<path d="M0.753739 9.99999C0.604894 10.0008 0.459162 9.95938 0.335125 9.88097C0.211088 9.80257 0.114364 9.69074 0.0572863 9.55975C0.000208414 9.42875 -0.0146379 9.28453 0.0146401 9.14547C0.0439182 9.0064 0.115994 8.8788 0.221679 8.77892L4.1934 5.00145L0.221679 1.22399C0.0805675 1.08953 0.00129195 0.907158 0.00129195 0.716998C0.00129196 0.526838 0.0805675 0.344467 0.221679 0.210004C0.36279 0.0755407 0.554178 1.4168e-09 0.753739 0C0.953301 -1.4168e-09 1.14469 0.0755407 1.2858 0.210004L5.78209 4.49446C5.92166 4.62825 6 4.80924 6 4.99788C6 5.18653 5.92166 5.36752 5.78209 5.50131L1.2858 9.78577C1.2164 9.85324 1.13363 9.90691 1.0423 9.94369C0.950969 9.98046 0.852888 9.9996 0.753739 9.99999Z" fill="#507623"/>
</svg>
