<svg width="26" height="26" viewBox="0 0 26 26" fill="none" xmlns="http://www.w3.org/2000/svg">
<path d="M2.21431 0C2.04376 0 1.89559 0.1155 1.85398 0.280833L0.111483 7.20343C-0.478238 9.54642 1.34943 11.8849 3.75903 11.8841C5.83303 11.8841 7.52036 10.1965 7.52036 8.12198V0L2.21431 0Z" fill="#507623"/>
<path d="M9.45215 0V8.30465C9.45215 10.2784 11.0585 11.8841 13.033 11.8841C15.0074 11.8841 16.6137 10.2784 16.6137 8.30465V0L9.45215 0Z" fill="#507623"/>
<path d="M18.5459 0V8.15526C18.5459 10.2114 20.2183 11.8842 22.274 11.8842C24.6603 11.8842 26.4734 9.56537 25.8893 7.24482L24.1364 0.280722C24.0948 0.1155 23.9467 0 23.7761 0L18.5459 0Z" fill="#507623"/>
<path d="M10.3926 18.7968H15.6075V25.9999H10.3926V18.7968Z" fill="#6C6C6C"/>
<path d="M22.2744 13.8156C20.3446 13.8156 18.6374 12.8451 17.6152 11.3663C16.6251 12.8423 14.9408 13.8156 13.0333 13.8156C11.1208 13.8156 9.43273 12.8372 8.44362 11.3546C7.41518 12.8406 5.69896 13.8156 3.75902 13.8156C2.96113 13.8156 2.18563 13.6514 1.47363 13.3397V25.6286C1.47363 25.8334 1.64035 26 1.84519 26H8.46045V17.8311C8.46045 17.2978 8.89295 16.8654 9.4265 16.8654H16.5735C17.1071 16.8654 17.5396 17.2978 17.5396 17.8311V26H24.1543C24.3592 26 24.5259 25.8334 24.5259 25.6285V13.3512C23.8235 13.6555 23.0596 13.8156 22.2744 13.8156Z" fill="#507623"/>
</svg>
