<svg width="23" height="26" viewBox="0 0 23 26" fill="none" xmlns="http://www.w3.org/2000/svg">
<path d="M11.4997 0C6.90153 0 3.06641 3.68012 3.06641 8.37891C3.06641 10.1665 3.60706 11.7605 4.64467 13.2542L10.8544 22.8813C11.1556 23.3493 11.8445 23.3484 12.1451 22.8813L18.3818 13.2215C19.397 11.7955 19.9331 10.1211 19.9331 8.37891C19.9331 3.75878 16.1499 0 11.4997 0ZM11.4997 12.1875C9.38614 12.1875 7.66641 10.4789 7.66641 8.37891C7.66641 6.27895 9.38614 4.57031 11.4997 4.57031C13.6133 4.57031 15.3331 6.27895 15.3331 8.37891C15.3331 10.4789 13.6133 12.1875 11.4997 12.1875Z" fill="#507623"/>
<path d="M17.4935 17.504L13.633 23.5006C12.6337 25.0485 10.3607 25.0435 9.36621 23.5021L5.49945 17.5056C2.09729 18.2871 0 19.7188 0 21.4297C0 24.3984 5.92521 26 11.5 26C17.0748 26 23 24.3984 23 21.4297C23 19.7176 20.8998 18.2851 17.4935 17.504Z" fill="#6C6C6C"/>
</svg>
